# xmcd
#
# Track frame offsets:
#	150
#	13144
#	25158
#	37362
#	49261
#	61512
#	74428
#	86488
#	97708
#	109668
#	120290
#	132818
#	144935
#	156701
#	170473
#	183227
#	196724
#	210772
#	223234
#	235177
#	247825
#	260370
#	273759
#	287532
#	301322
#
# Disc length: 4203 seconds
#
# Revision: 1
# Processed by: cddbd v1.4PL0 Copyright (c) Steve Scherf et al.
# Submitted via: CDmax 2.0
#
DISCID=50106919
DTITLE=Lightnin' Hopkins - Classic Sides 1946-1951, CD #3
DYEAR=2002
DGENRE=Blues
TTITLE0=Ain't It A Shame
TTITLE1=Tim Moore's Farm
TTITLE2=You Don't Know
TTITLE3=Treat Me Kind
TTITLE4=Somebody's Got To Go
TTITLE5=Baby Please Don't Go
TTITLE6=Death Bells
TTITLE7=Mad With You
TTITLE8=Airplane Blues
TTITLE9=Unsuccessful Blues
TTITLE10=Rollin' Woman Blues
TTITLE11=Jail House Blues
TTITLE12='T' Model Blues
TTITLE13=Traveler's Blues
TTITLE14=Lightnin's Boogie
TTITLE15=Unkind Blues
TTITLE16=Trying To Find A Friend
TTITLE17=Fast Life
TTITLE18=European Blues
TTITLE19=Automobile
TTITLE20=Zologo
TTITLE21=Organ Boogie
TTITLE22=Automobile Blues
TTITLE23=Old Woman Blues
TTITLE24=Untrue Blues
EXTD=
EXTT0=
EXTT1=
EXTT2=
EXTT3=
EXTT4=
EXTT5=
EXTT6=
EXTT7=
EXTT8=
EXTT9=
EXTT10=
EXTT11=
EXTT12=
EXTT13=
EXTT14=
EXTT15=
EXTT16=
EXTT17=
EXTT18=
EXTT19=
EXTT20=
EXTT21=
EXTT22=
EXTT23=
EXTT24=
PLAYORDER=
